HIERARCHY
ROOT joint_Root
{
	OFFSET 0.0 0.0 0.0
	CHANNELS 6 Xposition Yposition Zposition Zrotation Xrotation Yrotation 
	JOINT Hips
	{
		OFFSET 4.5925 91.4895 -427.239
		CHANNELS 6 Xposition Yposition Zposition Zrotation Xrotation Yrotation 
		JOINT Spine
		{
			OFFSET 15.7357 0.0 0.0
			CHANNELS 6 Xposition Yposition Zposition Zrotation Xrotation Yrotation 
			JOINT Chest
			{
				OFFSET 8.98455 -0.406207 0.0
				CHANNELS 6 Xposition Yposition Zposition Zrotation Xrotation Yrotation 
				JOINT Neck
				{
					OFFSET 16.3773 0.0 0.0
					CHANNELS 6 Xposition Yposition Zposition Zrotation Xrotation Yrotation 
					JOINT Head
					{
						OFFSET 6.45672 0.0 0.0
						CHANNELS 6 Xposition Yposition Zposition Zrotation Xrotation Yrotation 
						End Site
						{
							OFFSET 0.0 0.0 0.0
						}
					}
				}
				JOINT Shoulder_L
				{
					OFFSET 12.9942 -0.242716 4.98039
					CHANNELS 6 Xposition Yposition Zposition Zrotation Xrotation Yrotation 
					JOINT UpperArm_L
					{
						OFFSET 5.34809 0.0 0.0
						CHANNELS 6 Xposition Yposition Zposition Zrotation Xrotation Yrotation 
						JOINT LowerArm_L
						{
							OFFSET 24.3286 1.87007e-05 0.0
							CHANNELS 6 Xposition Yposition Zposition Zrotation Xrotation Yrotation 
							JOINT Hand_L
							{
								OFFSET 22.2916 0.0 0.0
								CHANNELS 6 Xposition Yposition Zposition Zrotation Xrotation Yrotation 
								End Site
								{
									OFFSET 0.0 0.0 0.0
								}
							}
						}
					}
				}
				JOINT Shoulder_R
				{
					OFFSET 12.9945 -0.242716 -4.98039
					CHANNELS 6 Xposition Yposition Zposition Zrotation Xrotation Yrotation 
					JOINT UpperArm_R
					{
						OFFSET -5.34813 0.0 0.0
						CHANNELS 6 Xposition Yposition Zposition Zrotation Xrotation Yrotation 
						JOINT LowerArm_R
						{
							OFFSET -24.3289 0.000322201 0.0
							CHANNELS 6 Xposition Yposition Zposition Zrotation Xrotation Yrotation 
							JOINT Hand_R
							{
								OFFSET -22.2915 -0.000108084 0.0
								CHANNELS 6 Xposition Yposition Zposition Zrotation Xrotation Yrotation 
								End Site
								{
									OFFSET 0.0 0.0 0.0
								}
							}
						}
					}
				}
			}
		}
		JOINT UpperLeg_L
		{
			OFFSET -2.19248 -6.46944 0.0
			CHANNELS 6 Xposition Yposition Zposition Zrotation Xrotation Yrotation 
			JOINT LowerLeg_L
			{
				OFFSET 39.0811 0.0 -1.23785e-05
				CHANNELS 6 Xposition Yposition Zposition Zrotation Xrotation Yrotation 
				JOINT Foot_L
				{
					OFFSET 40.9854 0.0 -1.26872e-05
					CHANNELS 6 Xposition Yposition Zposition Zrotation Xrotation Yrotation 
					JOINT Toes_L
					{
						OFFSET 11.7543 0.0 0.0
						CHANNELS 6 Xposition Yposition Zposition Zrotation Xrotation Yrotation 
						End Site
						{
							OFFSET 0.0 0.0 0.0
						}
					}
				}
			}
		}
		JOINT UpperLeg_R
		{
			OFFSET -2.19251 6.46944 0.0
			CHANNELS 6 Xposition Yposition Zposition Zrotation Xrotation Yrotation 
			JOINT LowerLeg_R
			{
				OFFSET -39.0811 -0.00228153 -0.0401928
				CHANNELS 6 Xposition Yposition Zposition Zrotation Xrotation Yrotation 
				JOINT Foot_R
				{
					OFFSET -40.9854 0.0 0.0
					CHANNELS 6 Xposition Yposition Zposition Zrotation Xrotation Yrotation 
					JOINT Toes_R
					{
						OFFSET -11.7543 0.0 0.0
						CHANNELS 6 Xposition Yposition Zposition Zrotation Xrotation Yrotation 
						End Site
						{
							OFFSET 0.0 0.0 0.0
						}
					}
				}
			}
		}
	}
}
MOTION
Frames:	8
Frame Time:	0.0333333
0.000000 0.000000 0.000000 0.000000 0.000000 -0.000000 4.877920 90.668000 0.128501 91.257500 -8.280440 13.373500 15.735700 0.000005 -0.000001 97.801500 81.953200 -102.761000 8.984550 -0.406207 -0.000000 8.295950 2.150970 -10.066400 16.377300 -0.000001 -0.000001 16.533800 5.159360 -4.506500 6.456720 -0.000001 -0.000000 0.978237 9.792830 -9.208250 12.994200 -0.242716 4.980390 -91.824100 5.771640 -72.427800 5.348090 -0.000007 -0.000001 -59.659300 25.320100 -12.756300 24.328600 0.000019 0.000005 11.467700 27.693400 -23.581800 22.291600 -0.000001 0.000005 10.486900 5.253060 1.351700 12.994500 -0.242716 -4.980390 90.724600 -2.993270 -76.385700 -5.348130 -0.000001 -0.000004 -50.788200 -50.040400 -75.762200 -24.328900 0.000322 -0.000009 4.437500 4.257170 -46.278900 -22.291500 -0.000108 -0.000004 29.751700 5.421490 -3.649350 -2.192480 -6.469440 -0.000000 -179.220000 -17.873600 4.452770 39.081100 -0.000007 -0.000012 -0.028925 0.051433 29.353500 40.985400 -0.000006 -0.000013 4.726140 4.140170 -71.135800 11.754300 -0.000000 0.000003 -0.000258 -0.002295 -16.663500 -2.192510 6.469440 -0.000001 168.512000 14.478200 -177.266000 -39.081100 -0.002282 -0.040193 -0.054394 0.096174 30.959400 -40.985400 0.000008 0.000006 2.927520 16.704700 -70.628400 -11.754300 -0.000006 -0.000006 -0.003385 -0.044884 -18.398600
0.000000 0.000000 0.000000 0.000000 0.000000 -0.000000 4.782810 90.668400 0.141883 91.243900 -8.554930 13.360000 15.735700 0.000005 -0.000001 97.424900 81.936200 -102.322000 8.984550 -0.406207 -0.000000 8.337170 2.049410 -9.935800 16.377300 -0.000001 -0.000001 16.684300 4.834430 -4.378640 6.456720 -0.000001 -0.000000 1.151060 9.431470 -9.246140 12.994200 -0.242716 4.980390 -91.850100 5.876170 -72.488700 5.348090 -0.000007 -0.000001 -59.628500 25.892400 -13.126600 24.328600 0.000019 0.000005 11.507400 27.411900 -23.855400 22.291600 -0.000001 0.000005 10.493000 5.252630 1.363240 12.994500 -0.242716 -4.980390 90.759200 -3.087160 -76.176300 -5.348130 -0.000001 -0.000004 -50.381100 -49.559300 -77.459800 -24.328900 0.000322 -0.000009 4.547410 4.012690 -48.665100 -22.291500 -0.000108 -0.000004 29.880000 5.432250 -4.016180 -2.192480 -6.469440 -0.000000 -179.104000 -17.988500 4.455010 39.081100 -0.000007 -0.000012 -0.035666 0.063355 29.377600 40.985400 -0.000006 -0.000013 4.631840 4.078310 -71.150400 11.754300 -0.000000 0.000003 -0.000240 -0.002155 -16.658400 -2.192510 6.469440 -0.000001 168.638000 14.274300 -177.338000 -39.081100 -0.002282 -0.040193 -0.063383 0.111147 30.961900 -40.985400 0.000008 0.000006 2.829870 16.770100 -70.586100 -11.754300 -0.000006 -0.000006 -0.003218 -0.043049 -18.323900
0.000000 0.000000 0.000000 0.000000 0.000000 -0.000000 4.685860 90.676100 0.164842 91.248600 -8.823780 13.410700 15.735700 0.000005 -0.000001 97.148800 81.911300 -102.000000 8.984550 -0.406207 -0.000000 8.391930 1.976700 -9.839200 16.377300 -0.000001 -0.000001 16.856400 4.539320 -4.256060 6.456720 -0.000001 -0.000000 1.416700 9.020640 -9.264350 12.994200 -0.242716 4.980390 -91.870800 5.954590 -72.522800 5.348090 -0.000007 -0.000001 -59.681300 26.379000 -13.396000 24.328600 0.000019 0.000005 11.586800 27.356500 -24.045300 22.291600 -0.000001 0.000005 10.479300 5.254560 1.311940 12.994500 -0.242716 -4.980390 90.785100 -3.154080 -76.013600 -5.348130 -0.000001 -0.000004 -49.700200 -49.079800 -79.026900 -24.328900 0.000322 -0.000009 4.732780 3.842200 -51.021000 -22.291500 -0.000108 -0.000004 30.023900 5.442310 -4.366890 -2.192480 -6.469440 -0.000000 -178.979000 -18.142800 4.583190 39.081100 -0.000007 -0.000012 -0.037180 0.066184 29.325800 40.985400 -0.000006 -0.000013 4.525420 3.991960 -71.148300 11.754300 -0.000000 0.000003 -0.000262 -0.002323 -16.664500 -2.192510 6.469440 -0.000001 168.732000 14.120100 -177.319000 -39.081100 -0.002282 -0.040193 -0.062135 0.109070 30.960700 -40.985400 0.000008 0.000006 2.906410 16.827600 -70.610900 -11.754300 -0.000006 -0.000006 -0.003143 -0.042215 -18.290000
0.000000 0.000000 0.000000 0.000000 0.000000 -0.000000 4.571550 90.679900 0.192023 91.246800 -9.079430 13.420600 15.735700 0.000005 -0.000001 97.010400 81.906000 -101.816000 8.984550 -0.406207 -0.000000 8.404410 1.939090 -9.744710 16.377300 -0.000001 -0.000001 17.124000 4.195820 -4.066680 6.456720 -0.000001 -0.000000 1.654570 8.608220 -9.353150 12.994200 -0.242716 4.980390 -91.887800 6.031190 -72.583300 5.348090 -0.000007 -0.000001 -59.801000 26.796400 -13.546200 24.328600 0.000019 0.000005 11.586200 27.211900 -24.148600 22.291600 -0.000001 0.000005 10.494600 5.257440 1.235430 12.994500 -0.242716 -4.980390 90.821600 -3.253190 -75.818100 -5.348130 -0.000001 -0.000004 -48.968300 -48.558800 -80.616800 -24.328900 0.000322 -0.000009 5.152330 3.854720 -53.298200 -22.291500 -0.000108 -0.000004 29.996000 5.449970 -4.638570 -2.192480 -6.469440 -0.000000 -178.842000 -18.296900 4.666330 39.081100 -0.000007 -0.000012 -0.041673 0.074256 29.301700 40.985400 -0.000006 -0.000013 4.413720 3.928630 -71.165300 11.754300 -0.000000 0.000003 -0.000249 -0.002227 -16.661000 -2.192510 6.469440 -0.000001 168.850000 13.976900 -177.351000 -39.081100 -0.002282 -0.040193 -0.065353 0.114315 30.987600 -40.985400 0.000008 0.000006 3.043140 16.886500 -70.670600 -11.754300 -0.000006 -0.000006 -0.003296 -0.043902 -18.358700
0.000000 0.000000 0.000000 0.000000 0.000000 -0.000000 4.452500 90.686300 0.213338 91.226700 -9.257860 13.427200 15.735700 0.000005 -0.000001 96.802500 81.885300 -101.558000 8.984550 -0.406207 -0.000000 8.448890 1.884320 -9.641830 16.377300 -0.000001 -0.000001 17.322900 3.902830 -3.915720 6.456720 -0.000001 -0.000000 1.898820 8.191650 -9.365760 12.994200 -0.242716 4.980390 -91.897700 6.077910 -72.623700 5.348090 -0.000007 -0.000001 -60.029900 27.111700 -13.617500 24.328600 0.000019 0.000005 11.532000 26.987100 -24.209700 22.291600 -0.000001 0.000005 10.573600 5.258630 1.203640 12.994500 -0.242716 -4.980390 90.860100 -3.347410 -75.581100 -5.348130 -0.000001 -0.000004 -48.214600 -48.082300 -82.222200 -24.328900 0.000322 -0.000009 5.590380 3.837830 -55.640300 -22.291500 -0.000108 -0.000004 29.810800 5.450390 -4.653490 -2.192480 -6.469440 -0.000000 -178.706000 -18.365600 4.725490 39.081100 -0.000007 -0.000012 -0.044100 0.078622 29.288800 40.985400 -0.000006 -0.000013 4.307450 3.891130 -71.172000 11.754300 -0.000000 0.000003 -0.000247 -0.002211 -16.660400 -2.192510 6.469440 -0.000001 168.974000 13.855400 -177.341000 -39.081100 -0.002282 -0.040193 -0.064924 0.113685 30.968800 -40.985400 0.000008 0.000006 3.067110 16.919600 -70.683300 -11.754300 -0.000006 -0.000006 -0.003112 -0.041864 -18.275700
0.000000 0.000000 0.000000 0.000000 0.000000 -0.000000 4.339680 90.688500 0.243142 91.235200 -9.378220 13.467300 15.735700 0.000005 -0.000001 96.612000 81.838000 -101.329000 8.984550 -0.406207 -0.000000 8.546250 1.837880 -9.564390 16.377300 -0.000001 -0.000001 17.550400 3.613140 -3.696930 6.456720 -0.000001 -0.000000 2.075800 7.849510 -9.438870 12.994200 -0.242716 4.980390 -91.909400 6.136720 -72.679600 5.348090 -0.000007 -0.000001 -60.259000 27.407200 -13.628700 24.328600 0.000019 0.000005 11.564800 26.966400 -24.287500 22.291600 -0.000001 0.000005 10.561200 5.260150 1.163030 12.994500 -0.242716 -4.980390 90.890800 -3.420910 -75.394400 -5.348130 -0.000001 -0.000004 -47.346900 -47.744000 -83.681400 -24.328900 0.000322 -0.000009 6.029460 3.781840 -58.022000 -22.291500 -0.000108 -0.000004 29.842000 5.452620 -4.733470 -2.192480 -6.469440 -0.000000 -178.625000 -18.336900 4.801350 39.081100 -0.000007 -0.000012 -0.047962 0.085540 29.279600 40.985400 -0.000006 -0.000013 4.188860 3.787720 -71.172600 11.754300 -0.000000 0.000003 -0.000250 -0.002235 -16.661300 -2.192510 6.469440 -0.000001 169.043000 13.789400 -177.305000 -39.081100 -0.002282 -0.040193 -0.070089 0.122201 30.987100 -40.985400 0.000008 0.000006 3.110320 16.922700 -70.722000 -11.754300 -0.000006 -0.000006 -0.003224 -0.043106 -18.326200
0.000000 0.000000 0.000000 0.000000 0.000000 -0.000000 4.212760 90.692400 0.260560 91.203200 -9.434780 13.478400 15.735700 0.000005 -0.000001 96.498000 81.801900 -101.173000 8.984550 -0.406207 -0.000000 8.619500 1.811090 -9.478020 16.377300 -0.000001 -0.000001 17.781100 3.319990 -3.522270 6.456720 -0.000001 -0.000000 2.354130 7.468460 -9.401030 12.994200 -0.242716 4.980390 -91.894700 6.117020 -72.753200 5.348090 -0.000007 -0.000001 -60.487600 27.871100 -13.613700 24.328600 0.000019 0.000005 11.555400 26.989000 -24.252800 22.291600 -0.000001 0.000005 10.634000 5.262690 1.094930 12.994500 -0.242716 -4.980390 90.921100 -3.494110 -75.221800 -5.348130 -0.000001 -0.000004 -46.354900 -47.465200 -84.887100 -24.328900 0.000322 -0.000009 6.641160 3.776260 -60.508800 -22.291500 -0.000108 -0.000004 29.769800 5.452700 -4.736240 -2.192480 -6.469440 -0.000000 -178.461000 -18.405000 4.857620 39.081100 -0.000007 -0.000012 -0.052932 0.094351 29.291700 40.985400 -0.000006 -0.000013 4.097240 3.816240 -71.189800 11.754300 -0.000000 0.000003 -0.000253 -0.002255 -16.662000 -2.192510 6.469440 -0.000001 169.164000 13.763500 -177.268000 -39.081100 -0.002282 -0.040193 -0.069356 0.120957 30.992000 -40.985400 0.000008 0.000006 3.246930 16.895600 -70.790300 -11.754300 -0.000006 -0.000006 -0.003160 -0.042402 -18.297600
0.000000 0.000000 0.000000 0.000000 0.000000 -0.000000 4.106330 90.692500 0.284557 91.160800 -9.410660 13.467700 15.735700 0.000005 -0.000001 96.367700 81.776200 -100.999000 8.984550 -0.406207 -0.000000 8.672380 1.778000 -9.389520 16.377300 -0.000001 -0.000001 18.046900 3.012530 -3.328710 6.456720 -0.000001 -0.000000 2.691820 7.069360 -9.402090 12.994200 -0.242716 4.980390 -91.881300 6.090410 -72.798400 5.348090 -0.000007 -0.000001 -60.686900 28.390600 -13.510000 24.328600 0.000019 0.000005 11.511400 26.837500 -24.280500 22.291600 -0.000001 0.000005 10.465800 5.259920 1.169140 12.994500 -0.242716 -4.980390 90.956000 -3.576340 -75.023900 -5.348130 -0.000001 -0.000004 -45.368100 -47.168700 -85.941000 -24.328900 0.000322 -0.000009 7.108000 3.655740 -62.921600 -22.291500 -0.000108 -0.000004 29.664600 5.453310 -4.758310 -2.192480 -6.469440 -0.000000 -178.352000 -18.335200 4.867060 39.081100 -0.000007 -0.000012 -0.052100 0.092735 29.327900 40.985400 -0.000006 -0.000013 4.028010 3.849740 -71.218600 11.754300 -0.000000 0.000003 -0.000241 -0.002168 -16.658900 -2.192510 6.469440 -0.000001 169.267000 13.817800 -177.229000 -39.081100 -0.002282 -0.040193 -0.069819 0.121745 30.988600 -40.985400 0.000008 0.000006 3.271510 16.887000 -70.822200 -11.754300 -0.000006 -0.000006 -0.003089 -0.041610 -18.265300
